# xmcd
#
# Track frame offsets:
#	151
#	11471
#	24322
#	37528
#	49841
#	61956
#	73485
#	84147
#	96025
#	106914
#	121337
#	131054
#	145993
#	159512
#	171539
#	181226
#
# Disc length: 2557
#
# Revision: 2
# Processed by: cddbd v1.5.1PL0 Copyright (c) Steve Scherf et al.
# Submitted via: dBpowerAMP V4.0
# Normalized: r0:TSWAP
#
DISCID=ce09fb10
DTITLE=Various Artist - The best of Country and Road music
DYEAR=1900
DGENRE=Country
TTITLE0=Roger Miller - King of the road
TTITLE1=Lynn Anderson - Rose garden
TTITLE2=Kenny Rogers - Ruby don't take your love to town
TTITLE3=Johnny Cash - I walk the line
TTITLE4=Patsy Cline - Crazy
TTITLE5=Don Gibson - Oh lonesome me
TTITLE6=Jimmy Rodgers - Kisses sweeter than wine
TTITLE7=Dolly Parton - Letter to heaven
TTITLE8=Tom Jones - Green green grass of home
TTITLE9=Frankie Laine - Mule train
TTITLE10=Dave Dutley - Six days on the rout
TTITLE11=Kingston Trio - Tom Dooley
TTITLE12=Patti Page - Tenesse Waltz
TTITLE13=Willie Nelson - I can't find the time
TTITLE14=Donna Fargo - Sticks and stones
TTITLE15=Faron Young - I you ain't lovin'
EXTD=Country compilation
EXTT0=
EXTT1=
EXTT2=
EXTT3=
EXTT4=
EXTT5=
EXTT6=
EXTT7=
EXTT8=
EXTT9=
EXTT10=
EXTT11=
EXTT12=
EXTT13=
EXTT14=
EXTT15=
PLAYORDER=
